<mxfile host="app.diagrams.net" agent="Mozilla/5.0 (Windows NT 10.0; Win64; x64) AppleWebKit/537.36 (KHTML, like Gecko) Chrome/135.0.0.0 Safari/537.36" version="26.2.14" pages="2">
  <diagram name="Страница — 1" id="2JjP7Pa0rujz-EyegafC">
    <mxGraphModel dx="1042" dy="692" grid="1" gridSize="10" guides="1" tooltips="1" connect="1" arrows="1" fold="1" page="1" pageScale="1" pageWidth="827" pageHeight="1169" math="0" shadow="0">
      <root>
        <mxCell id="0" />
        <mxCell id="1" parent="0" />
        <mxCell id="96zn_LZhvRboqHvBQPjA-2" value="&lt;font style=&quot;font-size: 24px;&quot;&gt;Result&lt;/font&gt;" style="text;html=1;align=center;verticalAlign=middle;whiteSpace=wrap;rounded=0;shadow=1;" parent="1" vertex="1">
          <mxGeometry x="164" y="50" width="60" height="30" as="geometry" />
        </mxCell>
        <mxCell id="96zn_LZhvRboqHvBQPjA-3" value="&lt;font style=&quot;font-size: 24px;&quot;&gt;π&lt;/font&gt;&lt;font style=&quot;font-size: 12px;&quot;&gt;(н_люди.фамилия,&lt;/font&gt;&lt;div&gt;&lt;font style=&quot;font-size: 12px;&quot;&gt;н_сессия.учгод)&lt;/font&gt;&lt;/div&gt;" style="text;html=1;align=center;verticalAlign=middle;whiteSpace=wrap;rounded=0;" parent="1" vertex="1">
          <mxGeometry x="84" y="100" width="220" height="40" as="geometry" />
        </mxCell>
        <mxCell id="96zn_LZhvRboqHvBQPjA-4" value="&lt;font face=&quot;Helvetica&quot; style=&quot;&quot;&gt;&lt;font style=&quot;font-size: 24px;&quot;&gt;σ&lt;/font&gt;&lt;font style=&quot;font-size: 12px;&quot;&gt;&lt;font style=&quot;&quot;&gt;(&lt;/font&gt;&lt;font style=&quot;&quot;&gt;н_люди.фамилия&amp;gt;&#39;Соколов&#39;&lt;/font&gt;&lt;/font&gt;&lt;/font&gt;&lt;span style=&quot;background-color: transparent; color: light-dark(rgb(0, 0, 0), rgb(255, 255, 255));&quot;&gt;)&lt;/span&gt;" style="text;html=1;align=center;verticalAlign=middle;whiteSpace=wrap;rounded=0;" parent="1" vertex="1">
          <mxGeometry x="79" y="160" width="230" height="50" as="geometry" />
        </mxCell>
        <mxCell id="96zn_LZhvRboqHvBQPjA-8" value="&lt;font face=&quot;Helvetica&quot; style=&quot;&quot;&gt;&lt;font style=&quot;font-size: 24px;&quot;&gt;σ&lt;/font&gt;&lt;font style=&quot;font-size: 12px;&quot;&gt;&lt;font style=&quot;&quot;&gt;(н_сессия.члвк_ид &amp;gt;100622&lt;/font&gt;&lt;/font&gt;&lt;/font&gt;&lt;span style=&quot;background-color: initial;&quot;&gt;)&lt;/span&gt;" style="text;html=1;align=center;verticalAlign=middle;whiteSpace=wrap;rounded=0;" parent="1" vertex="1">
          <mxGeometry x="79" y="240" width="230" height="50" as="geometry" />
        </mxCell>
        <mxCell id="96zn_LZhvRboqHvBQPjA-9" value="&lt;span style=&quot;color: rgb(0, 0, 0); font-style: normal; font-variant-ligatures: normal; font-variant-caps: normal; font-weight: 400; letter-spacing: normal; orphans: 2; text-align: left; text-indent: 0px; text-transform: none; widows: 2; word-spacing: 0px; -webkit-text-stroke-width: 0px; white-space: normal; background-color: rgb(255, 255, 255); text-decoration-thickness: initial; text-decoration-style: initial; text-decoration-color: initial; float: none; display: inline !important;&quot;&gt;&lt;font style=&quot;font-size: 24px;&quot; face=&quot;Helvetica&quot;&gt;⋈&lt;/font&gt;&lt;font style=&quot;font-size: 12px;&quot; face=&quot;Helvetica&quot;&gt;(н_люди.ид =н_сессия.члвк_ид)&lt;/font&gt;&lt;/span&gt;" style="text;html=1;align=center;verticalAlign=middle;whiteSpace=wrap;rounded=0;" parent="1" vertex="1">
          <mxGeometry x="34" y="310" width="320" height="60" as="geometry" />
        </mxCell>
        <mxCell id="96zn_LZhvRboqHvBQPjA-10" value="Н_СЕССИЯ" style="text;html=1;align=center;verticalAlign=middle;whiteSpace=wrap;rounded=0;" parent="1" vertex="1">
          <mxGeometry x="244" y="400" width="110" height="40" as="geometry" />
        </mxCell>
        <mxCell id="96zn_LZhvRboqHvBQPjA-11" value="Н_ЛЮДИ" style="text;html=1;align=center;verticalAlign=middle;whiteSpace=wrap;rounded=0;" parent="1" vertex="1">
          <mxGeometry x="4" y="400" width="160" height="40" as="geometry" />
        </mxCell>
        <mxCell id="96zn_LZhvRboqHvBQPjA-12" value="" style="endArrow=none;html=1;rounded=0;exitX=0.5;exitY=0;exitDx=0;exitDy=0;entryX=0.25;entryY=1;entryDx=0;entryDy=0;" parent="1" source="96zn_LZhvRboqHvBQPjA-11" target="96zn_LZhvRboqHvBQPjA-9" edge="1">
          <mxGeometry width="50" height="50" relative="1" as="geometry">
            <mxPoint x="364" y="420" as="sourcePoint" />
            <mxPoint x="414" y="370" as="targetPoint" />
          </mxGeometry>
        </mxCell>
        <mxCell id="96zn_LZhvRboqHvBQPjA-13" value="" style="endArrow=none;html=1;rounded=0;exitX=0.5;exitY=0;exitDx=0;exitDy=0;entryX=0.75;entryY=1;entryDx=0;entryDy=0;" parent="1" source="96zn_LZhvRboqHvBQPjA-10" target="96zn_LZhvRboqHvBQPjA-9" edge="1">
          <mxGeometry width="50" height="50" relative="1" as="geometry">
            <mxPoint x="94" y="410" as="sourcePoint" />
            <mxPoint x="124" y="380" as="targetPoint" />
          </mxGeometry>
        </mxCell>
        <mxCell id="96zn_LZhvRboqHvBQPjA-14" value="" style="endArrow=none;html=1;rounded=0;exitX=0.5;exitY=0;exitDx=0;exitDy=0;" parent="1" source="96zn_LZhvRboqHvBQPjA-9" target="96zn_LZhvRboqHvBQPjA-8" edge="1">
          <mxGeometry width="50" height="50" relative="1" as="geometry">
            <mxPoint x="364" y="420" as="sourcePoint" />
            <mxPoint x="414" y="370" as="targetPoint" />
          </mxGeometry>
        </mxCell>
        <mxCell id="96zn_LZhvRboqHvBQPjA-15" value="" style="endArrow=none;html=1;rounded=0;exitX=0.5;exitY=0;exitDx=0;exitDy=0;entryX=0.5;entryY=1;entryDx=0;entryDy=0;" parent="1" source="96zn_LZhvRboqHvBQPjA-8" target="96zn_LZhvRboqHvBQPjA-4" edge="1">
          <mxGeometry width="50" height="50" relative="1" as="geometry">
            <mxPoint x="104" y="420" as="sourcePoint" />
            <mxPoint x="134" y="390" as="targetPoint" />
          </mxGeometry>
        </mxCell>
        <mxCell id="96zn_LZhvRboqHvBQPjA-16" value="" style="endArrow=none;html=1;rounded=0;exitX=0.5;exitY=1;exitDx=0;exitDy=0;entryX=0.5;entryY=0;entryDx=0;entryDy=0;" parent="1" source="96zn_LZhvRboqHvBQPjA-3" target="96zn_LZhvRboqHvBQPjA-4" edge="1">
          <mxGeometry width="50" height="50" relative="1" as="geometry">
            <mxPoint x="114" y="430" as="sourcePoint" />
            <mxPoint x="144" y="400" as="targetPoint" />
          </mxGeometry>
        </mxCell>
        <mxCell id="96zn_LZhvRboqHvBQPjA-17" value="" style="endArrow=none;html=1;rounded=0;exitX=0.5;exitY=1;exitDx=0;exitDy=0;entryX=0.5;entryY=0;entryDx=0;entryDy=0;" parent="1" source="96zn_LZhvRboqHvBQPjA-2" target="96zn_LZhvRboqHvBQPjA-3" edge="1">
          <mxGeometry width="50" height="50" relative="1" as="geometry">
            <mxPoint x="124" y="440" as="sourcePoint" />
            <mxPoint x="154" y="410" as="targetPoint" />
          </mxGeometry>
        </mxCell>
        <mxCell id="96zn_LZhvRboqHvBQPjA-21" value="&lt;font style=&quot;font-size: 24px;&quot;&gt;Result&lt;/font&gt;" style="text;html=1;align=center;verticalAlign=middle;whiteSpace=wrap;rounded=0;shadow=1;" parent="1" vertex="1">
          <mxGeometry x="548" y="50" width="60" height="30" as="geometry" />
        </mxCell>
        <mxCell id="96zn_LZhvRboqHvBQPjA-22" value="&lt;font style=&quot;font-size: 24px;&quot;&gt;π&lt;/font&gt;(н_люди.фамилия,&lt;div&gt;н_сессия.учгод)&lt;/div&gt;" style="text;html=1;align=center;verticalAlign=middle;whiteSpace=wrap;rounded=0;" parent="1" vertex="1">
          <mxGeometry x="468" y="100" width="220" height="40" as="geometry" />
        </mxCell>
        <mxCell id="96zn_LZhvRboqHvBQPjA-23" value="&lt;font face=&quot;Helvetica&quot; style=&quot;&quot;&gt;&lt;font style=&quot;font-size: 24px;&quot;&gt;σ&lt;/font&gt;&lt;font style=&quot;font-size: 12px;&quot;&gt;&lt;font style=&quot;&quot;&gt;(&lt;/font&gt;&lt;font style=&quot;&quot;&gt;н_люди.фамилия&amp;gt;&#39;Cоколов&#39;&lt;/font&gt;&lt;/font&gt;&lt;/font&gt;&lt;span style=&quot;background-color: transparent; color: light-dark(rgb(0, 0, 0), rgb(255, 255, 255));&quot;&gt;)&lt;/span&gt;" style="text;html=1;align=center;verticalAlign=middle;whiteSpace=wrap;rounded=0;" parent="1" vertex="1">
          <mxGeometry x="354" y="240" width="230" height="50" as="geometry" />
        </mxCell>
        <mxCell id="96zn_LZhvRboqHvBQPjA-24" value="&lt;font face=&quot;Helvetica&quot; style=&quot;&quot;&gt;&lt;font style=&quot;font-size: 24px;&quot;&gt;σ&lt;/font&gt;&lt;font style=&quot;font-size: 12px;&quot;&gt;&lt;font style=&quot;&quot;&gt;(н_сессия.члвк_ид&amp;gt;100622&lt;/font&gt;&lt;/font&gt;&lt;/font&gt;&lt;span style=&quot;background-color: initial;&quot;&gt;)&lt;/span&gt;" style="text;html=1;align=center;verticalAlign=middle;whiteSpace=wrap;rounded=0;" parent="1" vertex="1">
          <mxGeometry x="594" y="240" width="230" height="50" as="geometry" />
        </mxCell>
        <mxCell id="96zn_LZhvRboqHvBQPjA-25" value="&lt;span style=&quot;color: rgb(0, 0, 0); font-style: normal; font-variant-ligatures: normal; font-variant-caps: normal; font-weight: 400; letter-spacing: normal; orphans: 2; text-align: left; text-indent: 0px; text-transform: none; widows: 2; word-spacing: 0px; -webkit-text-stroke-width: 0px; white-space: normal; background-color: rgb(255, 255, 255); text-decoration-thickness: initial; text-decoration-style: initial; text-decoration-color: initial; float: none; display: inline !important;&quot;&gt;&lt;font style=&quot;font-size: 24px;&quot; face=&quot;Helvetica&quot;&gt;⋈&lt;/font&gt;&lt;font style=&quot;font-size: 12px;&quot; face=&quot;Helvetica&quot;&gt;(н_люди.ид =н_сессия.члвк_ид)&lt;/font&gt;&lt;/span&gt;" style="text;html=1;align=center;verticalAlign=middle;whiteSpace=wrap;rounded=0;" parent="1" vertex="1">
          <mxGeometry x="418" y="170" width="320" height="45" as="geometry" />
        </mxCell>
        <mxCell id="96zn_LZhvRboqHvBQPjA-26" value="Н_CЕССИЯ" style="text;html=1;align=center;verticalAlign=middle;whiteSpace=wrap;rounded=0;" parent="1" vertex="1">
          <mxGeometry x="654" y="320" width="110" height="40" as="geometry" />
        </mxCell>
        <mxCell id="96zn_LZhvRboqHvBQPjA-27" value="Н_ЛЮДИ" style="text;html=1;align=center;verticalAlign=middle;whiteSpace=wrap;rounded=0;" parent="1" vertex="1">
          <mxGeometry x="388" y="320" width="160" height="40" as="geometry" />
        </mxCell>
        <mxCell id="96zn_LZhvRboqHvBQPjA-33" value="" style="endArrow=none;html=1;rounded=0;exitX=0.5;exitY=1;exitDx=0;exitDy=0;entryX=0.5;entryY=0;entryDx=0;entryDy=0;" parent="1" source="96zn_LZhvRboqHvBQPjA-21" target="96zn_LZhvRboqHvBQPjA-22" edge="1">
          <mxGeometry width="50" height="50" relative="1" as="geometry">
            <mxPoint x="508" y="440" as="sourcePoint" />
            <mxPoint x="538" y="410" as="targetPoint" />
          </mxGeometry>
        </mxCell>
        <mxCell id="96zn_LZhvRboqHvBQPjA-34" value="" style="endArrow=none;html=1;rounded=0;exitX=0.5;exitY=0;exitDx=0;exitDy=0;entryX=0.5;entryY=1;entryDx=0;entryDy=0;" parent="1" source="96zn_LZhvRboqHvBQPjA-27" target="96zn_LZhvRboqHvBQPjA-23" edge="1">
          <mxGeometry width="50" height="50" relative="1" as="geometry">
            <mxPoint x="94" y="410" as="sourcePoint" />
            <mxPoint x="124" y="380" as="targetPoint" />
          </mxGeometry>
        </mxCell>
        <mxCell id="96zn_LZhvRboqHvBQPjA-35" value="" style="endArrow=none;html=1;rounded=0;exitX=0.5;exitY=0;exitDx=0;exitDy=0;entryX=0.5;entryY=1;entryDx=0;entryDy=0;" parent="1" source="96zn_LZhvRboqHvBQPjA-26" target="96zn_LZhvRboqHvBQPjA-24" edge="1">
          <mxGeometry width="50" height="50" relative="1" as="geometry">
            <mxPoint x="489" y="330" as="sourcePoint" />
            <mxPoint x="489" y="300" as="targetPoint" />
          </mxGeometry>
        </mxCell>
        <mxCell id="96zn_LZhvRboqHvBQPjA-36" value="" style="endArrow=none;html=1;rounded=0;exitX=0.5;exitY=0;exitDx=0;exitDy=0;entryX=0.25;entryY=1;entryDx=0;entryDy=0;" parent="1" source="96zn_LZhvRboqHvBQPjA-23" target="96zn_LZhvRboqHvBQPjA-25" edge="1">
          <mxGeometry width="50" height="50" relative="1" as="geometry">
            <mxPoint x="499" y="340" as="sourcePoint" />
            <mxPoint x="499" y="310" as="targetPoint" />
          </mxGeometry>
        </mxCell>
        <mxCell id="96zn_LZhvRboqHvBQPjA-37" value="" style="endArrow=none;html=1;rounded=0;exitX=0.5;exitY=0;exitDx=0;exitDy=0;entryX=0.75;entryY=1;entryDx=0;entryDy=0;" parent="1" source="96zn_LZhvRboqHvBQPjA-24" target="96zn_LZhvRboqHvBQPjA-25" edge="1">
          <mxGeometry width="50" height="50" relative="1" as="geometry">
            <mxPoint x="509" y="350" as="sourcePoint" />
            <mxPoint x="509" y="320" as="targetPoint" />
          </mxGeometry>
        </mxCell>
        <mxCell id="96zn_LZhvRboqHvBQPjA-38" value="" style="endArrow=none;html=1;rounded=0;entryX=0.5;entryY=1;entryDx=0;entryDy=0;" parent="1" source="96zn_LZhvRboqHvBQPjA-25" target="96zn_LZhvRboqHvBQPjA-22" edge="1">
          <mxGeometry width="50" height="50" relative="1" as="geometry">
            <mxPoint x="519" y="360" as="sourcePoint" />
            <mxPoint x="519" y="330" as="targetPoint" />
          </mxGeometry>
        </mxCell>
        <mxCell id="K8DJrwSRKDagzmZcBtCX-1" value="&lt;font style=&quot;font-size: 24px;&quot;&gt;Result&lt;/font&gt;" style="text;html=1;align=center;verticalAlign=middle;whiteSpace=wrap;rounded=0;shadow=1;" vertex="1" parent="1">
          <mxGeometry x="1030" y="60" width="60" height="30" as="geometry" />
        </mxCell>
        <mxCell id="K8DJrwSRKDagzmZcBtCX-2" value="&lt;font style=&quot;font-size: 24px;&quot;&gt;π&lt;/font&gt;&lt;font style=&quot;font-size: 12px;&quot;&gt;(н_люди.фамилия,&lt;/font&gt;&lt;div&gt;&lt;font style=&quot;font-size: 12px;&quot;&gt;н_ведомости.ид,н_сессия.дата)&lt;/font&gt;&lt;/div&gt;" style="text;html=1;align=center;verticalAlign=middle;whiteSpace=wrap;rounded=0;" vertex="1" parent="1">
          <mxGeometry x="950" y="110" width="220" height="40" as="geometry" />
        </mxCell>
        <mxCell id="K8DJrwSRKDagzmZcBtCX-3" value="&lt;font face=&quot;Helvetica&quot; style=&quot;&quot;&gt;&lt;font style=&quot;font-size: 24px;&quot;&gt;σ&lt;/font&gt;&lt;font style=&quot;font-size: 12px;&quot;&gt;&lt;font style=&quot;&quot;&gt;(&lt;/font&gt;&lt;font style=&quot;&quot;&gt;н_люди.отчество&amp;lt;&#39;Александрович&#39;&lt;/font&gt;&lt;/font&gt;&lt;/font&gt;&lt;span style=&quot;background-color: transparent; color: light-dark(rgb(0, 0, 0), rgb(255, 255, 255));&quot;&gt;)&lt;/span&gt;" style="text;html=1;align=center;verticalAlign=middle;whiteSpace=wrap;rounded=0;" vertex="1" parent="1">
          <mxGeometry x="945" y="170" width="230" height="50" as="geometry" />
        </mxCell>
        <mxCell id="K8DJrwSRKDagzmZcBtCX-4" value="&lt;font face=&quot;Helvetica&quot; style=&quot;&quot;&gt;&lt;font style=&quot;font-size: 24px;&quot;&gt;σ&lt;/font&gt;&lt;font style=&quot;font-size: 12px;&quot;&gt;&lt;font style=&quot;&quot;&gt;(н_ведомости.дата &amp;lt; &#39;2010-06-18&#39;&lt;/font&gt;&lt;/font&gt;&lt;/font&gt;&lt;span style=&quot;background-color: initial;&quot;&gt;)&lt;/span&gt;" style="text;html=1;align=center;verticalAlign=middle;whiteSpace=wrap;rounded=0;" vertex="1" parent="1">
          <mxGeometry x="945" y="250" width="230" height="50" as="geometry" />
        </mxCell>
        <mxCell id="K8DJrwSRKDagzmZcBtCX-5" value="&lt;span style=&quot;color: rgb(0, 0, 0); font-style: normal; font-variant-ligatures: normal; font-variant-caps: normal; font-weight: 400; letter-spacing: normal; orphans: 2; text-align: left; text-indent: 0px; text-transform: none; widows: 2; word-spacing: 0px; -webkit-text-stroke-width: 0px; white-space: normal; background-color: rgb(255, 255, 255); text-decoration-thickness: initial; text-decoration-style: initial; text-decoration-color: initial; float: none; display: inline !important;&quot;&gt;&lt;font style=&quot;font-size: 24px;&quot; face=&quot;Helvetica&quot;&gt;⋈&lt;/font&gt;&lt;font style=&quot;font-size: 12px;&quot; face=&quot;Helvetica&quot;&gt;(н_ведомости.cэс_ид =н_сессия.сэс_ид)&lt;/font&gt;&lt;/span&gt;" style="text;html=1;align=center;verticalAlign=middle;whiteSpace=wrap;rounded=0;" vertex="1" parent="1">
          <mxGeometry x="900" y="430" width="320" height="60" as="geometry" />
        </mxCell>
        <mxCell id="K8DJrwSRKDagzmZcBtCX-6" value="Н_СЕССИЯ" style="text;html=1;align=center;verticalAlign=middle;whiteSpace=wrap;rounded=0;" vertex="1" parent="1">
          <mxGeometry x="1120" y="520" width="110" height="40" as="geometry" />
        </mxCell>
        <mxCell id="K8DJrwSRKDagzmZcBtCX-7" value="Н_ВЕДОМОСТИ" style="text;html=1;align=center;verticalAlign=middle;whiteSpace=wrap;rounded=0;" vertex="1" parent="1">
          <mxGeometry x="870" y="520" width="160" height="40" as="geometry" />
        </mxCell>
        <mxCell id="K8DJrwSRKDagzmZcBtCX-8" value="" style="endArrow=none;html=1;rounded=0;exitX=0.5;exitY=0;exitDx=0;exitDy=0;entryX=0.25;entryY=1;entryDx=0;entryDy=0;" edge="1" parent="1" source="K8DJrwSRKDagzmZcBtCX-7" target="K8DJrwSRKDagzmZcBtCX-5">
          <mxGeometry width="50" height="50" relative="1" as="geometry">
            <mxPoint x="1230" y="430" as="sourcePoint" />
            <mxPoint x="1280" y="380" as="targetPoint" />
          </mxGeometry>
        </mxCell>
        <mxCell id="K8DJrwSRKDagzmZcBtCX-9" value="" style="endArrow=none;html=1;rounded=0;exitX=0.5;exitY=0;exitDx=0;exitDy=0;entryX=0.75;entryY=1;entryDx=0;entryDy=0;" edge="1" parent="1" source="K8DJrwSRKDagzmZcBtCX-6" target="K8DJrwSRKDagzmZcBtCX-5">
          <mxGeometry width="50" height="50" relative="1" as="geometry">
            <mxPoint x="960" y="420" as="sourcePoint" />
            <mxPoint x="990" y="390" as="targetPoint" />
          </mxGeometry>
        </mxCell>
        <mxCell id="K8DJrwSRKDagzmZcBtCX-10" value="" style="endArrow=none;html=1;rounded=0;" edge="1" parent="1" target="K8DJrwSRKDagzmZcBtCX-4">
          <mxGeometry width="50" height="50" relative="1" as="geometry">
            <mxPoint x="1060" y="340" as="sourcePoint" />
            <mxPoint x="1280" y="380" as="targetPoint" />
          </mxGeometry>
        </mxCell>
        <mxCell id="K8DJrwSRKDagzmZcBtCX-11" value="" style="endArrow=none;html=1;rounded=0;exitX=0.5;exitY=0;exitDx=0;exitDy=0;entryX=0.5;entryY=1;entryDx=0;entryDy=0;" edge="1" parent="1" source="K8DJrwSRKDagzmZcBtCX-4" target="K8DJrwSRKDagzmZcBtCX-3">
          <mxGeometry width="50" height="50" relative="1" as="geometry">
            <mxPoint x="970" y="430" as="sourcePoint" />
            <mxPoint x="1000" y="400" as="targetPoint" />
          </mxGeometry>
        </mxCell>
        <mxCell id="K8DJrwSRKDagzmZcBtCX-12" value="" style="endArrow=none;html=1;rounded=0;exitX=0.5;exitY=1;exitDx=0;exitDy=0;entryX=0.5;entryY=0;entryDx=0;entryDy=0;" edge="1" parent="1" source="K8DJrwSRKDagzmZcBtCX-2" target="K8DJrwSRKDagzmZcBtCX-3">
          <mxGeometry width="50" height="50" relative="1" as="geometry">
            <mxPoint x="980" y="440" as="sourcePoint" />
            <mxPoint x="1010" y="410" as="targetPoint" />
          </mxGeometry>
        </mxCell>
        <mxCell id="K8DJrwSRKDagzmZcBtCX-13" value="" style="endArrow=none;html=1;rounded=0;exitX=0.5;exitY=1;exitDx=0;exitDy=0;entryX=0.5;entryY=0;entryDx=0;entryDy=0;" edge="1" parent="1" source="K8DJrwSRKDagzmZcBtCX-1" target="K8DJrwSRKDagzmZcBtCX-2">
          <mxGeometry width="50" height="50" relative="1" as="geometry">
            <mxPoint x="990" y="450" as="sourcePoint" />
            <mxPoint x="1020" y="420" as="targetPoint" />
          </mxGeometry>
        </mxCell>
        <mxCell id="K8DJrwSRKDagzmZcBtCX-14" value="&lt;font style=&quot;font-size: 24px;&quot;&gt;Result&lt;/font&gt;" style="text;html=1;align=center;verticalAlign=middle;whiteSpace=wrap;rounded=0;shadow=1;" vertex="1" parent="1">
          <mxGeometry x="1540" y="60" width="60" height="30" as="geometry" />
        </mxCell>
        <mxCell id="K8DJrwSRKDagzmZcBtCX-15" value="&lt;font style=&quot;font-size: 24px;&quot;&gt;π&lt;/font&gt;(н_люди.фамилия,&lt;div&gt;н_ведомости.ид,н_сессия.дата)&lt;/div&gt;" style="text;html=1;align=center;verticalAlign=middle;whiteSpace=wrap;rounded=0;" vertex="1" parent="1">
          <mxGeometry x="1460" y="110" width="220" height="40" as="geometry" />
        </mxCell>
        <mxCell id="K8DJrwSRKDagzmZcBtCX-16" value="&lt;font face=&quot;Helvetica&quot; style=&quot;&quot;&gt;&lt;font style=&quot;font-size: 24px;&quot;&gt;σ&lt;/font&gt;&lt;font style=&quot;font-size: 12px;&quot;&gt;&lt;font style=&quot;&quot;&gt;(&lt;/font&gt;&lt;font style=&quot;&quot;&gt;н_люди.отчество&amp;gt;&#39;Cоколов&#39;&lt;/font&gt;&lt;/font&gt;&lt;/font&gt;&lt;span style=&quot;background-color: transparent; color: light-dark(rgb(0, 0, 0), rgb(255, 255, 255));&quot;&gt;)&lt;/span&gt;" style="text;html=1;align=center;verticalAlign=middle;whiteSpace=wrap;rounded=0;" vertex="1" parent="1">
          <mxGeometry x="1220" y="240" width="230" height="50" as="geometry" />
        </mxCell>
        <mxCell id="K8DJrwSRKDagzmZcBtCX-17" value="&lt;font face=&quot;Helvetica&quot; style=&quot;&quot;&gt;&lt;font style=&quot;font-size: 24px;&quot;&gt;σ&lt;/font&gt;&lt;font style=&quot;font-size: 12px;&quot;&gt;&lt;font style=&quot;&quot;&gt;(н_сессия.члвк_ид&amp;gt;100622&lt;/font&gt;&lt;/font&gt;&lt;/font&gt;&lt;span style=&quot;background-color: initial;&quot;&gt;)&lt;/span&gt;" style="text;html=1;align=center;verticalAlign=middle;whiteSpace=wrap;rounded=0;" vertex="1" parent="1">
          <mxGeometry x="1730" y="240" width="230" height="50" as="geometry" />
        </mxCell>
        <mxCell id="K8DJrwSRKDagzmZcBtCX-33" style="edgeStyle=orthogonalEdgeStyle;rounded=0;orthogonalLoop=1;jettySize=auto;html=1;entryX=0.5;entryY=0;entryDx=0;entryDy=0;endArrow=none;startFill=0;" edge="1" parent="1" source="K8DJrwSRKDagzmZcBtCX-18" target="K8DJrwSRKDagzmZcBtCX-32">
          <mxGeometry relative="1" as="geometry" />
        </mxCell>
        <mxCell id="K8DJrwSRKDagzmZcBtCX-18" value="&lt;span style=&quot;color: rgb(0, 0, 0); font-style: normal; font-variant-ligatures: normal; font-variant-caps: normal; font-weight: 400; letter-spacing: normal; orphans: 2; text-align: left; text-indent: 0px; text-transform: none; widows: 2; word-spacing: 0px; -webkit-text-stroke-width: 0px; white-space: normal; background-color: rgb(255, 255, 255); text-decoration-thickness: initial; text-decoration-style: initial; text-decoration-color: initial; float: none; display: inline !important;&quot;&gt;&lt;font style=&quot;font-size: 24px;&quot; face=&quot;Helvetica&quot;&gt;⋈&lt;/font&gt;&lt;font style=&quot;font-size: 12px;&quot; face=&quot;Helvetica&quot;&gt;(н_ведомости.сэс_ид =н_сессия.сэс_ид)&lt;/font&gt;&lt;/span&gt;" style="text;html=1;align=center;verticalAlign=middle;whiteSpace=wrap;rounded=0;" vertex="1" parent="1">
          <mxGeometry x="1410" y="180" width="320" height="45" as="geometry" />
        </mxCell>
        <mxCell id="K8DJrwSRKDagzmZcBtCX-19" value="Н_CЕССИЯ" style="text;html=1;align=center;verticalAlign=middle;whiteSpace=wrap;rounded=0;" vertex="1" parent="1">
          <mxGeometry x="1800" y="345" width="110" height="40" as="geometry" />
        </mxCell>
        <mxCell id="K8DJrwSRKDagzmZcBtCX-20" value="Н_ЛЮДИ" style="text;html=1;align=center;verticalAlign=middle;whiteSpace=wrap;rounded=0;" vertex="1" parent="1">
          <mxGeometry x="1241" y="345" width="160" height="40" as="geometry" />
        </mxCell>
        <mxCell id="K8DJrwSRKDagzmZcBtCX-21" value="" style="endArrow=none;html=1;rounded=0;exitX=0.5;exitY=1;exitDx=0;exitDy=0;entryX=0.5;entryY=0;entryDx=0;entryDy=0;" edge="1" parent="1" source="K8DJrwSRKDagzmZcBtCX-14" target="K8DJrwSRKDagzmZcBtCX-15">
          <mxGeometry width="50" height="50" relative="1" as="geometry">
            <mxPoint x="1500" y="450" as="sourcePoint" />
            <mxPoint x="1530" y="420" as="targetPoint" />
          </mxGeometry>
        </mxCell>
        <mxCell id="K8DJrwSRKDagzmZcBtCX-22" value="" style="endArrow=none;html=1;rounded=0;exitX=0.5;exitY=0;exitDx=0;exitDy=0;entryX=0.5;entryY=1;entryDx=0;entryDy=0;" edge="1" parent="1" source="K8DJrwSRKDagzmZcBtCX-20" target="K8DJrwSRKDagzmZcBtCX-16">
          <mxGeometry width="50" height="50" relative="1" as="geometry">
            <mxPoint x="1086" y="420" as="sourcePoint" />
            <mxPoint x="1461" y="300" as="targetPoint" />
          </mxGeometry>
        </mxCell>
        <mxCell id="K8DJrwSRKDagzmZcBtCX-23" value="" style="endArrow=none;html=1;rounded=0;exitX=0.5;exitY=0;exitDx=0;exitDy=0;entryX=0.5;entryY=1;entryDx=0;entryDy=0;" edge="1" parent="1" source="K8DJrwSRKDagzmZcBtCX-19" target="K8DJrwSRKDagzmZcBtCX-17">
          <mxGeometry width="50" height="50" relative="1" as="geometry">
            <mxPoint x="1481" y="340" as="sourcePoint" />
            <mxPoint x="1481" y="310" as="targetPoint" />
          </mxGeometry>
        </mxCell>
        <mxCell id="K8DJrwSRKDagzmZcBtCX-24" value="" style="endArrow=none;html=1;rounded=0;exitX=0.5;exitY=0;exitDx=0;exitDy=0;entryX=0.25;entryY=1;entryDx=0;entryDy=0;" edge="1" parent="1" source="K8DJrwSRKDagzmZcBtCX-16" target="K8DJrwSRKDagzmZcBtCX-18">
          <mxGeometry width="50" height="50" relative="1" as="geometry">
            <mxPoint x="1461" y="250" as="sourcePoint" />
            <mxPoint x="1491" y="320" as="targetPoint" />
          </mxGeometry>
        </mxCell>
        <mxCell id="K8DJrwSRKDagzmZcBtCX-25" value="" style="endArrow=none;html=1;rounded=0;exitX=0.5;exitY=0;exitDx=0;exitDy=0;entryX=0.75;entryY=1;entryDx=0;entryDy=0;" edge="1" parent="1" source="K8DJrwSRKDagzmZcBtCX-17" target="K8DJrwSRKDagzmZcBtCX-18">
          <mxGeometry width="50" height="50" relative="1" as="geometry">
            <mxPoint x="1501" y="360" as="sourcePoint" />
            <mxPoint x="1501" y="330" as="targetPoint" />
          </mxGeometry>
        </mxCell>
        <mxCell id="K8DJrwSRKDagzmZcBtCX-26" value="" style="endArrow=none;html=1;rounded=0;entryX=0.5;entryY=1;entryDx=0;entryDy=0;" edge="1" parent="1" source="K8DJrwSRKDagzmZcBtCX-18" target="K8DJrwSRKDagzmZcBtCX-15">
          <mxGeometry width="50" height="50" relative="1" as="geometry">
            <mxPoint x="1511" y="370" as="sourcePoint" />
            <mxPoint x="1511" y="340" as="targetPoint" />
          </mxGeometry>
        </mxCell>
        <mxCell id="K8DJrwSRKDagzmZcBtCX-30" style="edgeStyle=orthogonalEdgeStyle;rounded=0;orthogonalLoop=1;jettySize=auto;html=1;endArrow=none;startFill=0;" edge="1" parent="1" source="K8DJrwSRKDagzmZcBtCX-27" target="K8DJrwSRKDagzmZcBtCX-5">
          <mxGeometry relative="1" as="geometry" />
        </mxCell>
        <mxCell id="K8DJrwSRKDagzmZcBtCX-27" value="&lt;font face=&quot;Helvetica&quot; style=&quot;&quot;&gt;&lt;font style=&quot;font-size: 24px;&quot;&gt;σ&lt;/font&gt;&lt;font style=&quot;font-size: 12px;&quot;&gt;&lt;font style=&quot;&quot;&gt;(н_сессия.учгод = &#39;2008/2009&#39;&lt;/font&gt;&lt;/font&gt;&lt;/font&gt;&lt;span style=&quot;background-color: initial;&quot;&gt;)&lt;/span&gt;" style="text;html=1;align=center;verticalAlign=middle;whiteSpace=wrap;rounded=0;" vertex="1" parent="1">
          <mxGeometry x="945" y="340" width="230" height="50" as="geometry" />
        </mxCell>
        <mxCell id="K8DJrwSRKDagzmZcBtCX-31" style="edgeStyle=orthogonalEdgeStyle;rounded=0;orthogonalLoop=1;jettySize=auto;html=1;exitX=0.5;exitY=1;exitDx=0;exitDy=0;" edge="1" parent="1" source="K8DJrwSRKDagzmZcBtCX-19" target="K8DJrwSRKDagzmZcBtCX-19">
          <mxGeometry relative="1" as="geometry" />
        </mxCell>
        <mxCell id="K8DJrwSRKDagzmZcBtCX-35" style="edgeStyle=orthogonalEdgeStyle;rounded=0;orthogonalLoop=1;jettySize=auto;html=1;entryX=0.5;entryY=0;entryDx=0;entryDy=0;endArrow=none;startFill=0;" edge="1" parent="1" source="K8DJrwSRKDagzmZcBtCX-32" target="K8DJrwSRKDagzmZcBtCX-34">
          <mxGeometry relative="1" as="geometry" />
        </mxCell>
        <mxCell id="K8DJrwSRKDagzmZcBtCX-32" value="&lt;font face=&quot;Helvetica&quot; style=&quot;&quot;&gt;&lt;font style=&quot;font-size: 24px;&quot;&gt;σ&lt;/font&gt;&lt;font style=&quot;font-size: 12px;&quot;&gt;&lt;font style=&quot;&quot;&gt;(&lt;/font&gt;&lt;font style=&quot;&quot;&gt;н_ведомости.дата&amp;lt;&#39;2010-06-18&#39;&lt;/font&gt;&lt;/font&gt;&lt;/font&gt;&lt;span style=&quot;background-color: transparent; color: light-dark(rgb(0, 0, 0), rgb(255, 255, 255));&quot;&gt;)&lt;/span&gt;" style="text;html=1;align=center;verticalAlign=middle;whiteSpace=wrap;rounded=0;" vertex="1" parent="1">
          <mxGeometry x="1455" y="290" width="230" height="50" as="geometry" />
        </mxCell>
        <mxCell id="K8DJrwSRKDagzmZcBtCX-34" value="Н_ВЕДОМОСТИ" style="text;html=1;align=center;verticalAlign=middle;whiteSpace=wrap;rounded=0;" vertex="1" parent="1">
          <mxGeometry x="1490" y="370" width="160" height="40" as="geometry" />
        </mxCell>
      </root>
    </mxGraphModel>
  </diagram>
  <diagram id="Bz84TYsq3eT7sRz_icdk" name="Страница — 2">
    <mxGraphModel dx="2501" dy="788" grid="1" gridSize="10" guides="1" tooltips="1" connect="1" arrows="1" fold="1" page="1" pageScale="1" pageWidth="827" pageHeight="1169" math="0" shadow="0">
      <root>
        <mxCell id="0" />
        <mxCell id="1" parent="0" />
        <mxCell id="AfHIorYxNq62lIFqsqqZ-1" value="&lt;font style=&quot;font-size: 24px;&quot;&gt;Result&lt;/font&gt;" style="text;html=1;align=center;verticalAlign=middle;whiteSpace=wrap;rounded=0;shadow=1;" vertex="1" parent="1">
          <mxGeometry x="164" y="50" width="60" height="30" as="geometry" />
        </mxCell>
        <mxCell id="AfHIorYxNq62lIFqsqqZ-2" value="&lt;font style=&quot;font-size: 24px;&quot;&gt;π&lt;/font&gt;&lt;font style=&quot;font-size: 12px;&quot;&gt;(н_люди.отчество, н_обучения.члвк_ид, н_ученики.начало&lt;/font&gt;&lt;span style=&quot;background-color: initial;&quot;&gt;)&lt;/span&gt;" style="text;html=1;align=center;verticalAlign=middle;whiteSpace=wrap;rounded=0;" vertex="1" parent="1">
          <mxGeometry x="84" y="100" width="220" height="60" as="geometry" />
        </mxCell>
        <mxCell id="AfHIorYxNq62lIFqsqqZ-3" value="&lt;font face=&quot;Helvetica&quot; style=&quot;&quot;&gt;&lt;font style=&quot;font-size: 24px;&quot;&gt;σ&lt;/font&gt;&lt;font style=&quot;font-size: 12px;&quot;&gt;&lt;font style=&quot;&quot;&gt;(н_люди.отчество = &#39;Сергеевич&#39;&lt;/font&gt;&lt;/font&gt;&lt;/font&gt;&lt;span style=&quot;background-color: initial;&quot;&gt;)&lt;/span&gt;" style="text;html=1;align=center;verticalAlign=middle;whiteSpace=wrap;rounded=0;" vertex="1" parent="1">
          <mxGeometry x="79" y="180" width="230" height="40" as="geometry" />
        </mxCell>
        <mxCell id="AfHIorYxNq62lIFqsqqZ-4" value="&lt;font face=&quot;Helvetica&quot; style=&quot;&quot;&gt;&lt;font style=&quot;font-size: 24px;&quot;&gt;σ&lt;/font&gt;&lt;font style=&quot;font-size: 12px;&quot;&gt;&lt;font style=&quot;&quot;&gt;(н_обучения.члвк_ид = 163276&lt;/font&gt;&lt;/font&gt;&lt;/font&gt;&lt;span style=&quot;background-color: initial;&quot;&gt;)&lt;/span&gt;" style="text;html=1;align=center;verticalAlign=middle;whiteSpace=wrap;rounded=0;" vertex="1" parent="1">
          <mxGeometry x="79" y="250" width="230" height="40" as="geometry" />
        </mxCell>
        <mxCell id="AfHIorYxNq62lIFqsqqZ-5" value="&lt;span style=&quot;color: rgb(0, 0, 0); font-style: normal; font-variant-ligatures: normal; font-variant-caps: normal; font-weight: 400; letter-spacing: normal; orphans: 2; text-align: left; text-indent: 0px; text-transform: none; widows: 2; word-spacing: 0px; -webkit-text-stroke-width: 0px; white-space: normal; background-color: rgb(255, 255, 255); text-decoration-thickness: initial; text-decoration-style: initial; text-decoration-color: initial; float: none; display: inline !important;&quot;&gt;&lt;font style=&quot;font-size: 24px;&quot; face=&quot;Helvetica&quot;&gt;⋈&lt;/font&gt;&lt;font style=&quot;font-size: 12px;&quot; face=&quot;Helvetica&quot;&gt;(н_люди.ид = н_обучения.члвк_ид )&lt;/font&gt;&lt;/span&gt;" style="text;html=1;align=center;verticalAlign=middle;whiteSpace=wrap;rounded=0;" vertex="1" parent="1">
          <mxGeometry x="-60" y="390" width="320" height="40" as="geometry" />
        </mxCell>
        <mxCell id="AfHIorYxNq62lIFqsqqZ-6" value="&lt;font style=&quot;font-size: 18px;&quot;&gt;н_ученики&lt;/font&gt;" style="text;html=1;align=center;verticalAlign=middle;whiteSpace=wrap;rounded=0;" vertex="1" parent="1">
          <mxGeometry x="260" y="390" width="110" height="40" as="geometry" />
        </mxCell>
        <mxCell id="AfHIorYxNq62lIFqsqqZ-7" value="&lt;font style=&quot;font-size: 18px;&quot;&gt;н_люди&lt;/font&gt;" style="text;html=1;align=center;verticalAlign=middle;whiteSpace=wrap;rounded=0;" vertex="1" parent="1">
          <mxGeometry x="-16" y="460" width="160" height="40" as="geometry" />
        </mxCell>
        <mxCell id="AfHIorYxNq62lIFqsqqZ-11" value="" style="endArrow=none;html=1;rounded=0;exitX=0.5;exitY=0;exitDx=0;exitDy=0;entryX=0.5;entryY=1;entryDx=0;entryDy=0;" edge="1" parent="1" source="AfHIorYxNq62lIFqsqqZ-4" target="AfHIorYxNq62lIFqsqqZ-3">
          <mxGeometry width="50" height="50" relative="1" as="geometry">
            <mxPoint x="104" y="420" as="sourcePoint" />
            <mxPoint x="134" y="390" as="targetPoint" />
          </mxGeometry>
        </mxCell>
        <mxCell id="AfHIorYxNq62lIFqsqqZ-12" value="" style="endArrow=none;html=1;rounded=0;exitX=0.5;exitY=1;exitDx=0;exitDy=0;entryX=0.5;entryY=0;entryDx=0;entryDy=0;" edge="1" parent="1" source="AfHIorYxNq62lIFqsqqZ-2" target="AfHIorYxNq62lIFqsqqZ-3">
          <mxGeometry width="50" height="50" relative="1" as="geometry">
            <mxPoint x="114" y="430" as="sourcePoint" />
            <mxPoint x="144" y="400" as="targetPoint" />
          </mxGeometry>
        </mxCell>
        <mxCell id="AfHIorYxNq62lIFqsqqZ-13" value="" style="endArrow=none;html=1;rounded=0;exitX=0.5;exitY=1;exitDx=0;exitDy=0;entryX=0.5;entryY=0;entryDx=0;entryDy=0;" edge="1" parent="1" source="AfHIorYxNq62lIFqsqqZ-1" target="AfHIorYxNq62lIFqsqqZ-2">
          <mxGeometry width="50" height="50" relative="1" as="geometry">
            <mxPoint x="124" y="440" as="sourcePoint" />
            <mxPoint x="154" y="410" as="targetPoint" />
          </mxGeometry>
        </mxCell>
        <mxCell id="AfHIorYxNq62lIFqsqqZ-14" value="&lt;font style=&quot;font-size: 18px;&quot;&gt;н_обучения&lt;/font&gt;" style="text;html=1;align=center;verticalAlign=middle;whiteSpace=wrap;rounded=0;" vertex="1" parent="1">
          <mxGeometry x="144" y="460" width="160" height="40" as="geometry" />
        </mxCell>
        <mxCell id="AfHIorYxNq62lIFqsqqZ-15" value="&lt;span style=&quot;color: rgb(0, 0, 0); font-style: normal; font-variant-ligatures: normal; font-variant-caps: normal; font-weight: 400; letter-spacing: normal; orphans: 2; text-align: left; text-indent: 0px; text-transform: none; widows: 2; word-spacing: 0px; -webkit-text-stroke-width: 0px; white-space: normal; background-color: rgb(255, 255, 255); text-decoration-thickness: initial; text-decoration-style: initial; text-decoration-color: initial; float: none; display: inline !important;&quot;&gt;&lt;font style=&quot;font-size: 24px;&quot; face=&quot;Helvetica&quot;&gt;⋈&lt;/font&gt;&lt;font style=&quot;font-size: 12px;&quot; face=&quot;Helvetica&quot;&gt;(н_обучения.вид_обуч_ид = н_ученики.ид )&lt;/font&gt;&lt;/span&gt;" style="text;html=1;align=center;verticalAlign=middle;whiteSpace=wrap;rounded=0;" vertex="1" parent="1">
          <mxGeometry x="34" y="320" width="320" height="40" as="geometry" />
        </mxCell>
        <mxCell id="AfHIorYxNq62lIFqsqqZ-16" value="" style="endArrow=none;html=1;rounded=0;exitX=0.25;exitY=0;exitDx=0;exitDy=0;entryX=0.75;entryY=1;entryDx=0;entryDy=0;" edge="1" parent="1" source="AfHIorYxNq62lIFqsqqZ-6" target="AfHIorYxNq62lIFqsqqZ-15">
          <mxGeometry width="50" height="50" relative="1" as="geometry">
            <mxPoint x="390" y="430" as="sourcePoint" />
            <mxPoint x="440" y="380" as="targetPoint" />
          </mxGeometry>
        </mxCell>
        <mxCell id="AfHIorYxNq62lIFqsqqZ-17" value="" style="endArrow=none;html=1;rounded=0;exitX=0.5;exitY=0;exitDx=0;exitDy=0;entryX=0.25;entryY=1;entryDx=0;entryDy=0;" edge="1" parent="1" source="AfHIorYxNq62lIFqsqqZ-5" target="AfHIorYxNq62lIFqsqqZ-15">
          <mxGeometry width="50" height="50" relative="1" as="geometry">
            <mxPoint x="390" y="430" as="sourcePoint" />
            <mxPoint x="440" y="380" as="targetPoint" />
          </mxGeometry>
        </mxCell>
        <mxCell id="AfHIorYxNq62lIFqsqqZ-18" value="" style="endArrow=none;html=1;rounded=0;exitX=0.5;exitY=0;exitDx=0;exitDy=0;entryX=0.5;entryY=1;entryDx=0;entryDy=0;" edge="1" parent="1" source="AfHIorYxNq62lIFqsqqZ-7" target="AfHIorYxNq62lIFqsqqZ-5">
          <mxGeometry width="50" height="50" relative="1" as="geometry">
            <mxPoint x="29" y="470" as="sourcePoint" />
            <mxPoint x="80" y="440" as="targetPoint" />
          </mxGeometry>
        </mxCell>
        <mxCell id="AfHIorYxNq62lIFqsqqZ-19" value="" style="endArrow=none;html=1;rounded=0;exitX=0.75;exitY=1;exitDx=0;exitDy=0;entryX=0.5;entryY=0;entryDx=0;entryDy=0;" edge="1" parent="1" source="AfHIorYxNq62lIFqsqqZ-5" target="AfHIorYxNq62lIFqsqqZ-14">
          <mxGeometry width="50" height="50" relative="1" as="geometry">
            <mxPoint x="390" y="430" as="sourcePoint" />
            <mxPoint x="440" y="380" as="targetPoint" />
          </mxGeometry>
        </mxCell>
        <mxCell id="AfHIorYxNq62lIFqsqqZ-20" value="&lt;font style=&quot;font-size: 24px;&quot;&gt;Result&lt;/font&gt;" style="text;html=1;align=center;verticalAlign=middle;whiteSpace=wrap;rounded=0;shadow=1;" vertex="1" parent="1">
          <mxGeometry x="654" y="50" width="60" height="30" as="geometry" />
        </mxCell>
        <mxCell id="AfHIorYxNq62lIFqsqqZ-21" value="&lt;font style=&quot;font-size: 24px;&quot;&gt;π&lt;/font&gt;&lt;font style=&quot;font-size: 12px;&quot;&gt;(н_люди.отчество, н_обучения.члвк_ид, н_ученики.начало&lt;/font&gt;&lt;span style=&quot;background-color: initial;&quot;&gt;)&lt;/span&gt;" style="text;html=1;align=center;verticalAlign=middle;whiteSpace=wrap;rounded=0;" vertex="1" parent="1">
          <mxGeometry x="574" y="100" width="220" height="60" as="geometry" />
        </mxCell>
        <mxCell id="AfHIorYxNq62lIFqsqqZ-22" value="&lt;font face=&quot;Helvetica&quot; style=&quot;&quot;&gt;&lt;font style=&quot;font-size: 24px;&quot;&gt;σ&lt;/font&gt;&lt;font style=&quot;font-size: 12px;&quot;&gt;&lt;font style=&quot;&quot;&gt;(н_люди.отчество = &#39;Сергеевич&#39;&lt;/font&gt;&lt;/font&gt;&lt;/font&gt;&lt;span style=&quot;background-color: initial;&quot;&gt;)&lt;/span&gt;" style="text;html=1;align=center;verticalAlign=middle;whiteSpace=wrap;rounded=0;" vertex="1" parent="1">
          <mxGeometry x="405" y="310" width="230" height="50" as="geometry" />
        </mxCell>
        <mxCell id="AfHIorYxNq62lIFqsqqZ-23" value="&lt;font face=&quot;Helvetica&quot; style=&quot;&quot;&gt;&lt;font style=&quot;font-size: 24px;&quot;&gt;σ&lt;/font&gt;&lt;font style=&quot;font-size: 12px;&quot;&gt;&lt;font style=&quot;&quot;&gt;(н_обучения.члвк_ид = 163276&lt;/font&gt;&lt;/font&gt;&lt;/font&gt;&lt;span style=&quot;background-color: initial;&quot;&gt;)&lt;/span&gt;" style="text;html=1;align=center;verticalAlign=middle;whiteSpace=wrap;rounded=0;" vertex="1" parent="1">
          <mxGeometry x="635" y="310" width="230" height="50" as="geometry" />
        </mxCell>
        <mxCell id="AfHIorYxNq62lIFqsqqZ-24" value="&lt;span style=&quot;color: rgb(0, 0, 0); font-style: normal; font-variant-ligatures: normal; font-variant-caps: normal; font-weight: 400; letter-spacing: normal; orphans: 2; text-align: left; text-indent: 0px; text-transform: none; widows: 2; word-spacing: 0px; -webkit-text-stroke-width: 0px; white-space: normal; background-color: rgb(255, 255, 255); text-decoration-thickness: initial; text-decoration-style: initial; text-decoration-color: initial; float: none; display: inline !important;&quot;&gt;&lt;font style=&quot;font-size: 24px;&quot; face=&quot;Helvetica&quot;&gt;⋈&lt;/font&gt;&lt;font style=&quot;font-size: 12px;&quot; face=&quot;Helvetica&quot;&gt;(н_люди.ид = н_обучения.члвк_ид )&lt;/font&gt;&lt;/span&gt;" style="text;html=1;align=center;verticalAlign=middle;whiteSpace=wrap;rounded=0;" vertex="1" parent="1">
          <mxGeometry x="414" y="245" width="320" height="40" as="geometry" />
        </mxCell>
        <mxCell id="AfHIorYxNq62lIFqsqqZ-25" value="&lt;font style=&quot;font-size: 18px;&quot;&gt;н_ученики&lt;/font&gt;" style="text;html=1;align=center;verticalAlign=middle;whiteSpace=wrap;rounded=0;" vertex="1" parent="1">
          <mxGeometry x="770" y="245" width="110" height="40" as="geometry" />
        </mxCell>
        <mxCell id="AfHIorYxNq62lIFqsqqZ-26" value="&lt;font style=&quot;font-size: 18px;&quot;&gt;н_люди&lt;/font&gt;" style="text;html=1;align=center;verticalAlign=middle;whiteSpace=wrap;rounded=0;" vertex="1" parent="1">
          <mxGeometry x="440" y="400" width="160" height="40" as="geometry" />
        </mxCell>
        <mxCell id="AfHIorYxNq62lIFqsqqZ-29" value="" style="endArrow=none;html=1;rounded=0;exitX=0.5;exitY=1;exitDx=0;exitDy=0;entryX=0.5;entryY=0;entryDx=0;entryDy=0;" edge="1" parent="1" source="AfHIorYxNq62lIFqsqqZ-20" target="AfHIorYxNq62lIFqsqqZ-21">
          <mxGeometry width="50" height="50" relative="1" as="geometry">
            <mxPoint x="614" y="440" as="sourcePoint" />
            <mxPoint x="644" y="410" as="targetPoint" />
          </mxGeometry>
        </mxCell>
        <mxCell id="AfHIorYxNq62lIFqsqqZ-30" value="&lt;font style=&quot;font-size: 18px;&quot;&gt;н_обучения&lt;/font&gt;" style="text;html=1;align=center;verticalAlign=middle;whiteSpace=wrap;rounded=0;" vertex="1" parent="1">
          <mxGeometry x="670" y="400" width="160" height="40" as="geometry" />
        </mxCell>
        <mxCell id="AfHIorYxNq62lIFqsqqZ-31" value="&lt;span style=&quot;color: rgb(0, 0, 0); font-style: normal; font-variant-ligatures: normal; font-variant-caps: normal; font-weight: 400; letter-spacing: normal; orphans: 2; text-align: left; text-indent: 0px; text-transform: none; widows: 2; word-spacing: 0px; -webkit-text-stroke-width: 0px; white-space: normal; background-color: rgb(255, 255, 255); text-decoration-thickness: initial; text-decoration-style: initial; text-decoration-color: initial; float: none; display: inline !important;&quot;&gt;&lt;font style=&quot;font-size: 24px;&quot; face=&quot;Helvetica&quot;&gt;⋈&lt;/font&gt;&lt;font style=&quot;font-size: 12px;&quot; face=&quot;Helvetica&quot;&gt;(н_обучения.вид_обуч_ид = н_ученики.ид )&lt;/font&gt;&lt;/span&gt;" style="text;html=1;align=center;verticalAlign=middle;whiteSpace=wrap;rounded=0;" vertex="1" parent="1">
          <mxGeometry x="524" y="190" width="320" height="40" as="geometry" />
        </mxCell>
        <mxCell id="AfHIorYxNq62lIFqsqqZ-32" value="" style="endArrow=none;html=1;rounded=0;exitX=0.25;exitY=0;exitDx=0;exitDy=0;entryX=0.75;entryY=1;entryDx=0;entryDy=0;" edge="1" parent="1" source="AfHIorYxNq62lIFqsqqZ-25" target="AfHIorYxNq62lIFqsqqZ-31">
          <mxGeometry width="50" height="50" relative="1" as="geometry">
            <mxPoint x="880" y="430" as="sourcePoint" />
            <mxPoint x="930" y="380" as="targetPoint" />
          </mxGeometry>
        </mxCell>
        <mxCell id="AfHIorYxNq62lIFqsqqZ-33" value="" style="endArrow=none;html=1;rounded=0;exitX=0.5;exitY=0;exitDx=0;exitDy=0;entryX=0.25;entryY=1;entryDx=0;entryDy=0;" edge="1" parent="1" source="AfHIorYxNq62lIFqsqqZ-24" target="AfHIorYxNq62lIFqsqqZ-31">
          <mxGeometry width="50" height="50" relative="1" as="geometry">
            <mxPoint x="880" y="430" as="sourcePoint" />
            <mxPoint x="930" y="380" as="targetPoint" />
          </mxGeometry>
        </mxCell>
        <mxCell id="AfHIorYxNq62lIFqsqqZ-36" value="" style="endArrow=none;html=1;rounded=0;exitX=0.5;exitY=0;exitDx=0;exitDy=0;entryX=0.5;entryY=1;entryDx=0;entryDy=0;" edge="1" parent="1" source="AfHIorYxNq62lIFqsqqZ-15" target="AfHIorYxNq62lIFqsqqZ-4">
          <mxGeometry width="50" height="50" relative="1" as="geometry">
            <mxPoint x="390" y="430" as="sourcePoint" />
            <mxPoint x="440" y="380" as="targetPoint" />
          </mxGeometry>
        </mxCell>
        <mxCell id="AfHIorYxNq62lIFqsqqZ-37" value="" style="endArrow=none;html=1;rounded=0;exitX=0.5;exitY=0;exitDx=0;exitDy=0;entryX=0.5;entryY=1;entryDx=0;entryDy=0;" edge="1" parent="1" source="AfHIorYxNq62lIFqsqqZ-30" target="AfHIorYxNq62lIFqsqqZ-23">
          <mxGeometry width="50" height="50" relative="1" as="geometry">
            <mxPoint x="770" y="430" as="sourcePoint" />
            <mxPoint x="820" y="380" as="targetPoint" />
          </mxGeometry>
        </mxCell>
        <mxCell id="AfHIorYxNq62lIFqsqqZ-38" value="" style="endArrow=none;html=1;rounded=0;exitX=0.5;exitY=0;exitDx=0;exitDy=0;entryX=0.5;entryY=1;entryDx=0;entryDy=0;" edge="1" parent="1" source="AfHIorYxNq62lIFqsqqZ-26" target="AfHIorYxNq62lIFqsqqZ-22">
          <mxGeometry width="50" height="50" relative="1" as="geometry">
            <mxPoint x="770" y="430" as="sourcePoint" />
            <mxPoint x="820" y="380" as="targetPoint" />
          </mxGeometry>
        </mxCell>
        <mxCell id="AfHIorYxNq62lIFqsqqZ-39" value="" style="endArrow=none;html=1;rounded=0;exitX=0.5;exitY=0;exitDx=0;exitDy=0;entryX=0.5;entryY=1;entryDx=0;entryDy=0;" edge="1" parent="1" source="AfHIorYxNq62lIFqsqqZ-22" target="AfHIorYxNq62lIFqsqqZ-24">
          <mxGeometry width="50" height="50" relative="1" as="geometry">
            <mxPoint x="770" y="430" as="sourcePoint" />
            <mxPoint x="820" y="380" as="targetPoint" />
          </mxGeometry>
        </mxCell>
        <mxCell id="AfHIorYxNq62lIFqsqqZ-40" value="" style="endArrow=none;html=1;rounded=0;exitX=0.75;exitY=1;exitDx=0;exitDy=0;entryX=0.5;entryY=0;entryDx=0;entryDy=0;" edge="1" parent="1" source="AfHIorYxNq62lIFqsqqZ-24" target="AfHIorYxNq62lIFqsqqZ-23">
          <mxGeometry width="50" height="50" relative="1" as="geometry">
            <mxPoint x="640" y="300" as="sourcePoint" />
            <mxPoint x="820" y="380" as="targetPoint" />
          </mxGeometry>
        </mxCell>
        <mxCell id="AfHIorYxNq62lIFqsqqZ-41" value="" style="endArrow=none;html=1;rounded=0;exitX=0.5;exitY=0;exitDx=0;exitDy=0;entryX=0.5;entryY=1;entryDx=0;entryDy=0;" edge="1" parent="1" source="AfHIorYxNq62lIFqsqqZ-31" target="AfHIorYxNq62lIFqsqqZ-21">
          <mxGeometry width="50" height="50" relative="1" as="geometry">
            <mxPoint x="770" y="430" as="sourcePoint" />
            <mxPoint x="820" y="380" as="targetPoint" />
          </mxGeometry>
        </mxCell>
      </root>
    </mxGraphModel>
  </diagram>
</mxfile>
